#!OML:ASF H:\Martial Arts Walks\Project 1\Capture day 1\Session 1\male.ASF
:FULLY-SPECIFIED
:DEGREES
2064
root -4.01103 11.952 -17.8911 -133.64 74.0683 -145.046
lowerback 21.0307 5.31684 5.94185
upperback -2.25278 8.75108 0.692362
thorax -13.5711 3.60543 -5.32752
lowerneck -1.15742 11.6633 3.41596
upperneck 1.9474 15.5644 -3.21535
head 1.34264 7.76311 -1.2494
rclavicle 1.81391e-014 -1.56046e-014
rhumerus -21.938 51.6398 -76.6913
rradius 107.352
rwrist 10.1869
rhand -15.8604 -24.0069
rfingers 7.12502
rthumb 10.3349 -53.733
lclavicle 1.81391e-014 -1.56046e-014
lhumerus -4.791 6.33465 69.279
lradius 109.035
lwrist 40.4328
lhand -29.3701 11.9997
lfingers 7.12502
lthumb -2.70915 41.9622
rfemur -44.2258 -33.0122 -1.36208
rtibia 84.2124
rfoot -25.8847 -9.74906
rtoes -38.7785
lfemur -74.0982 27.4805 2.00336
ltibia 100.376
lfoot -35.7651 -1.80468
ltoes -21.2744
2065
root -4.0142 12.0617 -17.9742 -134.413 73.7716 -145.935
lowerback 20.9434 5.29985 5.85586
upperback -2.19569 8.70651 0.75606
thorax -13.4819 3.60295 -5.18174
lowerneck -1.16242 11.5619 3.51961
upperneck 1.79775 15.4244 -3.26045
head 1.30364 7.69422 -1.28753
rclavicle -3.35946e-014 3.62782e-014
rhumerus -22.743 50.9019 -76.7166
rradius 107.184
rwrist 10.7354
rhand -15.2308 -24.1577
rfingers 7.12502
rthumb 10.9421 -53.8525
lclavicle -3.35946e-014 3.62782e-014
lhumerus -4.12541 5.65719 70.0299
lradius 108.593
lwrist 40.7633
lhand -29.4246 12.1902
lfingers 7.12502
lthumb -2.76176 42.1521
rfemur -43.2825 -32.3732 -1.52491
rtibia 82.7508
rfoot -24.8905 -9.74156
rtoes -38.4556
lfemur -73.8093 26.61 1.50827
ltibia 99.6607
lfoot -35.6237 -1.79268
ltoes -20.7426
2066
root -4.0201 12.1786 -18.0652 -135.384 73.4102 -147.012
lowerback 20.8762 5.22149 5.82063
upperback -2.13295 8.5995 0.847928
thorax -13.402 3.56875 -5.01681
lowerneck -1.18907 11.4653 3.47317
upperneck 1.60136 15.2904 -3.23816
head 1.23477 7.62808 -1.2834
rclavicle 1.00983e-013 2.51463e-014
rhumerus -23.5694 50.2387 -76.6879
rradius 106.978
rwrist 11.3888
rhand -14.668 -24.1404
rfingers 7.12502
rthumb 11.4849 -53.8058
lclavicle 1.00983e-013 2.51463e-014
lhumerus -3.5112 5.07663 70.8377
lradius 108.138
lwrist 40.9246
lhand -29.4829 12.2975
lfingers 7.12502
lthumb -2.81805 42.2587
rfemur -42.2355 -31.6215 -1.78628
rtibia 81.2088
rfoot -23.9523 -9.54783
rtoes -37.844
lfemur -73.5177 25.6128 0.943168
ltibia 98.8819
lfoot -35.4681 -1.62867
ltoes -20.3661
2067
root -4.02556 12.2975 -18.1583 -136.444 73.0998 -148.176
lowerback 20.817 5.1666 5.71589
upperback -2.06656 8.50693 0.945053
thorax -13.3314 3.54576 -4.81341
lowerneck -1.24036 11.3551 3.56171
upperneck 1.44657 15.1403 -3.39562
head 1.21024 7.55257 -1.35045
rclavicle 1.39646e-014 5.96354e-016
rhumerus -24.5622 49.4858 -76.6817
rradius 106.821
rwrist 12.0377
rhand -14.2335 -23.8612
rfingers 7.12502
rthumb 11.9039 -53.5027
lclavicle 1.39646e-014 5.96354e-016
lhumerus -2.91189 4.49423 71.6916
lradius 107.668
lwrist 40.8768
lhand -29.3921 12.2926
lfingers 7.12502
lthumb -2.73035 42.2548
rfemur -41.1595 -30.7301 -2.1044
rtibia 79.6273
rfoot -22.6257 -10.0388
rtoes -38.0483
lfemur -73.1442 24.6391 0.302311
ltibia 98.0381
lfoot -35.3087 -1.37317
ltoes -20.1197
2068
root -4.03335 12.4234 -18.2577 -137.597 72.7646 -149.353
lowerback 20.8242 5.03534 5.773
upperback -1.95441 8.34974 0.99628
thorax -13.2212 3.48159 -4.73537
lowerneck -1.27017 11.3095 3.51295
upperneck 1.17518 15.0738 -3.40752
head 1.12343 7.52044 -1.35628
rclavicle 5.46658e-016 -1.05356e-014
rhumerus -25.4482 48.7495 -76.6971
rradius 106.551
rwrist 12.6283
rhand -13.9184 -23.6428
rfingers 7.12502
rthumb 12.2078 -53.2666
lclavicle 5.46658e-016 -1.05356e-014
lhumerus -2.27647 3.96524 72.4794
lradius 107.175
lwrist 40.6726
lhand -29.253 12.4201
lfingers 7.12502
lthumb -2.59607 42.3841
rfemur -39.9772 -29.5985 -2.49355
rtibia 78.0349
rfoot -21.1584 -10.3878
rtoes -37.9612
lfemur -72.6329 23.5131 -0.278321
ltibia 97.1263
lfoot -35.1097 -1.24209
ltoes -19.443
